HIERARCHY
ROOT mixamorig:Hips
{
	OFFSET 0.000000 201.639420 0.000000
	CHANNELS 6 Xposition Yposition Zposition Xrotation Yrotation Zrotation
	JOINT mixamorig:Spine
	{
		OFFSET 0.006200 19.524994 -2.481800
		CHANNELS 3 Xrotation Yrotation Zrotation
		JOINT mixamorig:Spine1
		{
			OFFSET -0.000900 22.835007 -2.825400
			CHANNELS 3 Xrotation Yrotation Zrotation
			JOINT mixamorig:Spine2
			{
				OFFSET -0.020600 26.552490 -3.193300
				CHANNELS 3 Xrotation Yrotation Zrotation
				JOINT mixamorig:Neck
				{
					OFFSET -0.060000 30.701813 1.352200
					CHANNELS 3 Xrotation Yrotation Zrotation
					JOINT mixamorig:Head
					{
						OFFSET -0.087200 22.547607 3.670900
						CHANNELS 3 Xrotation Yrotation Zrotation
						JOINT mixamorig:HeadTop_End
						{
							OFFSET -0.830600 40.355194 7.893500
							CHANNELS 3 Xrotation Yrotation Zrotation
							End Site
							{
								OFFSET 0.000000 30.592346 0.000000
							}
						}
						JOINT mixamorig:RightEye
						{
							OFFSET -6.302100 18.118591 16.197100
							CHANNELS 3 Xrotation Yrotation Zrotation
							End Site
							{
								OFFSET 0.000000 30.592346 0.000000
							}
						}
						JOINT mixamorig:LeftEye
						{
							OFFSET 6.741500 18.382690 16.401899
							CHANNELS 3 Xrotation Yrotation Zrotation
							End Site
							{
								OFFSET 0.000000 30.592346 0.000000
							}
						}
					}
				}
				JOINT mixamorig:LeftShoulder
				{
					OFFSET 11.924900 18.230499 1.425400
					CHANNELS 3 Xrotation Yrotation Zrotation
					JOINT mixamorig:LeftArm
					{
						OFFSET 25.435989 -0.697632 -5.229300
						CHANNELS 3 Xrotation Yrotation Zrotation
						JOINT mixamorig:LeftForeArm
						{
							OFFSET 54.684776 0.000000 0.000000
							CHANNELS 3 Xrotation Yrotation Zrotation
							JOINT mixamorig:LeftHand
							{
								OFFSET 55.098175 0.000000 0.000000
								CHANNELS 3 Xrotation Yrotation Zrotation
								JOINT mixamorig:LeftHandMiddle1
								{
									OFFSET 23.369751 0.000000 0.000000
									CHANNELS 3 Xrotation Yrotation Zrotation
									JOINT mixamorig:LeftHandMiddle2
									{
										OFFSET 6.378677 0.000000 0.000000
										CHANNELS 3 Xrotation Yrotation Zrotation
										JOINT mixamorig:LeftHandMiddle3
										{
											OFFSET 6.148331 0.000000 0.000000
											CHANNELS 3 Xrotation Yrotation Zrotation
											JOINT mixamorig:LeftHandMiddle4
											{
												OFFSET 6.582504 0.000000 0.000000
												CHANNELS 3 Xrotation Yrotation Zrotation
												End Site
												{
													OFFSET -1.168900 6.395691 1.028606
												}
											}
										}
									}
								}
								JOINT mixamorig:LeftHandThumb1
								{
									OFFSET 7.235672 -3.848206 5.434273
									CHANNELS 3 Xrotation Yrotation Zrotation
									JOINT mixamorig:LeftHandThumb2
									{
										OFFSET 6.568451 -3.792297 3.792300
										CHANNELS 3 Xrotation Yrotation Zrotation
										JOINT mixamorig:LeftHandThumb3
										{
											OFFSET 6.063080 -3.500519 3.500518
											CHANNELS 3 Xrotation Yrotation Zrotation
											JOINT mixamorig:LeftHandThumb4
											{
												OFFSET 4.793182 -2.767334 2.767349
												CHANNELS 3 Xrotation Yrotation Zrotation
												End Site
												{
													OFFSET 0.101639 6.054260 1.275483
												}
											}
										}
									}
								}
								JOINT mixamorig:LeftHandIndex1
								{
									OFFSET 23.101074 -0.309540 4.992809
									CHANNELS 3 Xrotation Yrotation Zrotation
									JOINT mixamorig:LeftHandIndex2
									{
										OFFSET 6.226883 0.000000 0.000000
										CHANNELS 3 Xrotation Yrotation Zrotation
										JOINT mixamorig:LeftHandIndex3
										{
											OFFSET 6.094330 0.000000 0.000000
											CHANNELS 3 Xrotation Yrotation Zrotation
											JOINT mixamorig:LeftHandIndex4
											{
												OFFSET 5.482605 0.000000 0.000000
												CHANNELS 3 Xrotation Yrotation Zrotation
												End Site
												{
													OFFSET -1.427902 5.233032 0.797164
												}
											}
										}
									}
								}
								JOINT mixamorig:LeftHandRing1
								{
									OFFSET 22.299240 0.021149 -3.964172
									CHANNELS 3 Xrotation Yrotation Zrotation
									JOINT mixamorig:LeftHandRing2
									{
										OFFSET 6.321869 0.000000 0.000000
										CHANNELS 3 Xrotation Yrotation Zrotation
										JOINT mixamorig:LeftHandRing3
										{
											OFFSET 5.899796 0.000000 0.000000
											CHANNELS 3 Xrotation Yrotation Zrotation
											JOINT mixamorig:LeftHandRing4
											{
												OFFSET 6.517899 0.000000 0.000000
												CHANNELS 3 Xrotation Yrotation Zrotation
												End Site
												{
													OFFSET -1.637299 6.232208 0.980890
												}
											}
										}
									}
								}
								JOINT mixamorig:LeftHandPinky1
								{
									OFFSET 20.463791 -0.302338 -8.562233
									CHANNELS 3 Xrotation Yrotation Zrotation
									JOINT mixamorig:LeftHandPinky2
									{
										OFFSET 6.908646 0.000000 0.000000
										CHANNELS 3 Xrotation Yrotation Zrotation
										JOINT mixamorig:LeftHandPinky3
										{
											OFFSET 4.622849 0.000000 0.000000
											CHANNELS 3 Xrotation Yrotation Zrotation
											JOINT mixamorig:LeftHandPinky4
											{
												OFFSET 5.216080 0.000000 0.000000
												CHANNELS 3 Xrotation Yrotation Zrotation
												End Site
												{
													OFFSET -0.606308 5.116241 0.814926
												}
											}
										}
									}
								}
							}
						}
					}
				}
				JOINT mixamorig:RightShoulder
				{
					OFFSET -12.001300 18.284088 1.348900
					CHANNELS 3 Xrotation Yrotation Zrotation
					JOINT mixamorig:RightArm
					{
						OFFSET -25.308500 -0.751312 -5.164599
						CHANNELS 3 Xrotation Yrotation Zrotation
						JOINT mixamorig:RightForeArm
						{
							OFFSET -54.684429 0.000000 0.000000
							CHANNELS 3 Xrotation Yrotation Zrotation
							JOINT mixamorig:RightHand
							{
								OFFSET -55.150291 0.000000 0.000000
								CHANNELS 3 Xrotation Yrotation Zrotation
								JOINT mixamorig:RightHandMiddle1
								{
									OFFSET -23.317566 0.000000 0.000000
									CHANNELS 3 Xrotation Yrotation Zrotation
									JOINT mixamorig:RightHandMiddle2
									{
										OFFSET -6.378403 0.000000 0.000000
										CHANNELS 3 Xrotation Yrotation Zrotation
										JOINT mixamorig:RightHandMiddle3
										{
											OFFSET -6.148193 0.000000 0.000000
											CHANNELS 3 Xrotation Yrotation Zrotation
											JOINT mixamorig:RightHandMiddle4
											{
												OFFSET -6.583389 0.000000 0.000000
												CHANNELS 3 Xrotation Yrotation Zrotation
												End Site
												{
													OFFSET 1.171692 6.395905 1.029786
												}
											}
										}
									}
								}
								JOINT mixamorig:RightHandThumb1
								{
									OFFSET -7.190521 -3.860474 5.435846
									CHANNELS 3 Xrotation Yrotation Zrotation
									JOINT mixamorig:RightHandThumb2
									{
										OFFSET -6.567429 -3.791718 3.791708
										CHANNELS 3 Xrotation Yrotation Zrotation
										JOINT mixamorig:RightHandThumb3
										{
											OFFSET -6.062469 -3.500153 3.500166
											CHANNELS 3 Xrotation Yrotation Zrotation
											JOINT mixamorig:RightHandThumb4
											{
												OFFSET -4.792618 -2.767029 2.767022
												CHANNELS 3 Xrotation Yrotation Zrotation
												End Site
												{
													OFFSET -0.100327 6.053253 1.276754
												}
											}
										}
									}
								}
								JOINT mixamorig:RightHandIndex1
								{
									OFFSET -23.048981 -0.310791 4.992554
									CHANNELS 3 Xrotation Yrotation Zrotation
									JOINT mixamorig:RightHandIndex2
									{
										OFFSET -6.227539 0.000000 0.000000
										CHANNELS 3 Xrotation Yrotation Zrotation
										JOINT mixamorig:RightHandIndex3
										{
											OFFSET -6.095047 0.000000 0.000000
											CHANNELS 3 Xrotation Yrotation Zrotation
											JOINT mixamorig:RightHandIndex4
											{
												OFFSET -5.484772 0.000000 0.000000
												CHANNELS 3 Xrotation Yrotation Zrotation
												End Site
												{
													OFFSET 1.420593 5.237305 0.797056
												}
											}
										}
									}
								}
								JOINT mixamorig:RightHandRing1
								{
									OFFSET -22.246323 0.020569 -3.963762
									CHANNELS 3 Xrotation Yrotation Zrotation
									JOINT mixamorig:RightHandRing2
									{
										OFFSET -6.322128 0.000000 0.000000
										CHANNELS 3 Xrotation Yrotation Zrotation
										JOINT mixamorig:RightHandRing3
										{
											OFFSET -5.900024 0.000000 0.000000
											CHANNELS 3 Xrotation Yrotation Zrotation
											JOINT mixamorig:RightHandRing4
											{
												OFFSET -6.518356 0.000000 0.000000
												CHANNELS 3 Xrotation Yrotation Zrotation
												End Site
												{
													OFFSET 1.636398 6.232697 0.982186
												}
											}
										}
									}
								}
								JOINT mixamorig:RightHandPinky1
								{
									OFFSET -20.411011 -0.303314 -8.561701
									CHANNELS 3 Xrotation Yrotation Zrotation
									JOINT mixamorig:RightHandPinky2
									{
										OFFSET -6.907349 0.000000 0.000000
										CHANNELS 3 Xrotation Yrotation Zrotation
										JOINT mixamorig:RightHandPinky3
										{
											OFFSET -4.623840 0.000000 0.000000
											CHANNELS 3 Xrotation Yrotation Zrotation
											JOINT mixamorig:RightHandPinky4
											{
												OFFSET -5.218353 0.000000 0.000000
												CHANNELS 3 Xrotation Yrotation Zrotation
												End Site
												{
													OFFSET 0.602097 5.118835 0.816273
												}
											}
										}
									}
								}
							}
						}
					}
				}
			}
		}
	}
	JOINT mixamorig:LeftUpLeg
	{
		OFFSET 18.168400 -13.561905 -0.039000
		CHANNELS 3 Xrotation Yrotation Zrotation
		JOINT mixamorig:LeftLeg
		{
			OFFSET 0.577358 -80.825211 -3.695000
			CHANNELS 3 Xrotation Yrotation Zrotation
			JOINT mixamorig:LeftFoot
			{
				OFFSET -0.577356 -83.370262 -6.520700
				CHANNELS 3 Xrotation Yrotation Zrotation
				JOINT mixamorig:LeftToeBase
				{
					OFFSET 0.750401 -20.798306 25.135401
					CHANNELS 3 Xrotation Yrotation Zrotation
					JOINT mixamorig:LeftToe_End
					{
						OFFSET -0.000500 0.001200 19.917799
						CHANNELS 3 Xrotation Yrotation Zrotation
						End Site
						{
							OFFSET 0.000000 19.917805 0.000000
						}
					}
				}
			}
		}
	}
	JOINT mixamorig:RightUpLeg
	{
		OFFSET -18.162500 -13.585098 -0.041000
		CHANNELS 3 Xrotation Yrotation Zrotation
		JOINT mixamorig:RightLeg
		{
			OFFSET -0.595024 -80.945297 -3.631900
			CHANNELS 3 Xrotation Yrotation Zrotation
			JOINT mixamorig:RightFoot
			{
				OFFSET 0.595024 -83.218193 -6.561200
				CHANNELS 3 Xrotation Yrotation Zrotation
				JOINT mixamorig:RightToeBase
				{
					OFFSET -0.753601 -20.807106 25.115000
					CHANNELS 3 Xrotation Yrotation Zrotation
					JOINT mixamorig:RightToe_End
					{
						OFFSET 0.000299 0.001700 19.918200
						CHANNELS 3 Xrotation Yrotation Zrotation
						End Site
						{
							OFFSET 0.000000 19.918203 0.000000
						}
					}
				}
			}
		}
	}
}
MOTION
Frames: 5
Frame Time: 0.033333
0.092223 167.791779 -0.420971 11.656295 3.024316 -1.263201 9.929207 1.417293 1.241645 7.635564 0.727771 0.069630 7.627029 0.819157 0.049966 -11.286801 -1.926510 7.458520 -27.603368 2.009036 -6.030579 0.000000 -0.000000 -0.000000 0.000000 -0.000000 -0.000000 0.000000 -0.000000 -0.000000 3.557352 -26.212548 4.772367 -62.766044 -21.470647 -66.508947 -0.000026 -109.210572 -0.000051 0.135675 -3.715312 14.140441 -0.000005 -0.001926 0.015980 0.000004 0.001936 -0.016043 -0.000001 0.000010 -0.000043 -0.000001 0.000001 -0.000000 -15.245220 10.163088 26.456299 3.939043 7.948706 0.746814 -0.579457 1.575008 2.538718 0.000001 -0.000001 -0.000001 -0.000004 0.000004 0.000009 0.000002 0.000012 -0.000061 0.000003 0.000009 -0.000051 -0.000002 0.000002 -0.000002 -0.000001 0.000001 0.000013 -0.000002 0.000017 -0.000074 -0.000003 0.000003 -0.000057 -0.000002 0.000001 0.000000 -0.018079 4.054257 0.511077 -0.018092 -4.054233 -0.511139 -0.000007 0.000003 -0.000049 0.000001 -0.000002 -0.000001 1.187771 13.203596 10.965271 -59.431143 43.923382 52.032354 0.000053 105.494813 -0.000063 2.227105 -4.224516 -38.912868 0.000000 0.000001 0.000001 -0.000001 -0.000011 0.000087 -0.000003 0.000002 0.000019 0.000002 0.000003 -0.000001 -6.948211 -5.049369 -29.743008 4.637196 -8.634128 -0.225396 -1.273767 0.137308 -2.094860 0.000001 0.000002 0.000000 -0.000004 -0.000000 0.000010 0.000009 -0.000011 0.000069 -0.000004 0.000003 0.000028 0.000002 -0.000002 -0.000001 -0.000003 -0.000001 0.000005 0.000010 -0.000005 0.000078 -0.000010 0.000004 0.000021 -0.000002 -0.000004 0.000002 -0.000004 0.000001 0.000011 0.000009 -0.000008 0.000075 -0.000006 -0.000003 0.000030 -0.000001 0.000000 -0.000000 -57.683721 1.472044 4.757005 76.558463 7.727461 -0.482997 -29.616243 5.347889 -5.127332 -0.000006 -0.000000 -0.000003 0.000000 -0.000000 -0.000000 -55.823122 -14.287747 -6.951619 75.548763 -8.028394 -4.695068 -32.326213 -9.918679 4.149940 -0.000000 -0.000010 -0.000001 0.000000 -0.000000 -0.000000 
0.078279 167.792023 -0.454781 11.661535 3.030841 -1.274206 9.933762 1.427872 1.238440 7.643220 0.737471 0.071540 7.634599 0.828775 0.051941 -11.325234 -1.921903 7.427202 -27.471589 2.017462 -6.065409 0.000000 0.000000 0.000000 0.000000 0.000000 0.000000 0.000000 0.000000 0.000000 3.557349 -26.212547 4.772367 -62.797162 -21.515635 -66.546205 -0.000105 -109.041518 -0.000126 0.031401 -3.701913 14.086285 -0.000005 -0.001921 0.015978 0.000003 0.001945 -0.016042 -0.000001 0.000004 -0.000043 -0.000001 -0.000001 0.000000 -15.245218 10.163091 26.456297 3.939042 7.948698 0.746811 -0.579458 1.575007 2.538718 0.000001 0.000000 -0.000000 -0.000002 0.000006 0.000007 0.000001 0.000010 -0.000062 0.000005 0.000009 -0.000051 -0.000000 0.000000 -0.000000 -0.000001 0.000004 0.000011 -0.000003 0.000017 -0.000073 -0.000001 -0.000000 -0.000059 -0.000001 -0.000000 -0.000000 -0.018078 4.054258 0.511070 -0.018095 -4.054234 -0.511136 -0.000007 0.000009 -0.000048 0.000000 -0.000002 -0.000001 1.190543 13.220141 10.903909 -59.409976 43.750876 52.045229 0.000111 105.439973 -0.000088 2.146388 -4.240721 -38.935528 0.000002 0.000001 0.000001 0.000001 -0.000010 0.000086 -0.000004 -0.000001 0.000020 0.000000 0.000003 -0.000001 -6.948211 -5.049369 -29.743008 4.637194 -8.634130 -0.225394 -1.273768 0.137315 -2.094856 0.000000 -0.000002 -0.000000 -0.000004 0.000005 0.000010 0.000008 -0.000007 0.000068 -0.000005 0.000002 0.000027 0.000001 -0.000001 -0.000002 -0.000002 -0.000001 0.000005 0.000008 -0.000006 0.000080 -0.000011 -0.000003 0.000023 -0.000000 0.000000 -0.000001 -0.000004 0.000001 0.000010 0.000008 -0.000013 0.000074 -0.000006 -0.000005 0.000031 -0.000001 -0.000002 -0.000000 -57.701541 1.420796 4.798569 76.567240 7.728409 -0.560909 -29.605004 5.304828 -5.114974 -0.000006 -0.000000 -0.000003 -0.000000 -0.000000 -0.000000 -55.841841 -14.315456 -6.932583 75.541407 -8.042290 -4.729103 -32.302010 -9.901835 4.159168 -0.000000 -0.000009 -0.000001 -0.000000 -0.000000 -0.000000 
0.070529 167.796677 -0.472927 11.664625 3.021021 -1.284552 9.942079 1.430666 1.237672 7.652926 0.742467 0.078511 7.644379 0.833111 0.059134 -11.357792 -1.907919 7.381143 -27.422472 2.048978 -6.115901 0.000000 -0.000000 0.000000 0.000000 -0.000000 0.000000 0.000000 -0.000000 0.000000 3.557355 -26.212550 4.772368 -62.692770 -21.551417 -66.567659 0.000328 -109.117914 0.000319 0.159064 -3.766386 14.187637 -0.000006 -0.001923 0.015982 0.000003 0.001944 -0.016042 -0.000002 0.000007 -0.000042 -0.000001 -0.000002 0.000001 -15.245223 10.163089 26.456301 3.939040 7.948704 0.746812 -0.579459 1.575005 2.538718 0.000000 -0.000003 -0.000001 -0.000005 0.000004 0.000012 0.000001 0.000012 -0.000062 0.000002 0.000014 -0.000046 0.000001 -0.000001 -0.000001 -0.000002 0.000007 0.000015 -0.000001 0.000019 -0.000076 -0.000002 -0.000001 -0.000058 -0.000000 -0.000001 0.000001 -0.018080 4.054258 0.511078 -0.018095 -4.054236 -0.511136 -0.000007 0.000006 -0.000050 -0.000001 0.000004 -0.000000 1.194022 13.259050 10.799342 -59.236264 43.576265 51.950142 0.000081 105.623200 -0.000086 2.218379 -4.209578 -38.910471 -0.000002 0.000003 0.000001 0.000000 -0.000008 0.000088 -0.000004 0.000002 0.000021 0.000000 -0.000000 -0.000000 -6.948211 -5.049366 -29.743008 4.637193 -8.634128 -0.225396 -1.273766 0.137308 -2.094856 0.000000 0.000001 0.000001 -0.000005 0.000003 0.000010 0.000008 -0.000006 0.000071 -0.000003 0.000000 0.000028 0.000002 0.000000 -0.000001 -0.000003 0.000000 0.000003 0.000009 -0.000004 0.000080 -0.000010 0.000002 0.000022 0.000000 0.000004 0.000001 -0.000003 0.000004 0.000010 0.000009 -0.000005 0.000075 -0.000005 0.000002 0.000030 0.000000 -0.000000 0.000001 -57.710270 1.407596 4.835986 76.568517 7.732342 -0.592123 -29.598673 5.276584 -5.112586 -0.000006 -0.000000 -0.000003 0.000000 -0.000000 -0.000000 -55.844023 -14.322233 -6.910240 75.528567 -8.055418 -4.735029 -32.291198 -9.894241 4.160484 -0.000000 -0.000009 -0.000001 -0.000000 -0.000000 0.000000 
0.059831 167.794952 -0.475506 11.676942 3.023137 -1.288457 9.945059 1.422326 1.233126 7.656532 0.738653 0.081619 7.648152 0.828178 0.062569 -11.383146 -1.894223 7.341705 -27.443063 2.081486 -6.169773 0.000000 0.000000 -0.000000 0.000000 0.000000 -0.000000 0.000000 0.000000 -0.000000 3.557350 -26.212550 4.772368 -62.527773 -21.592132 -66.587951 -0.000052 -109.319418 -0.000026 0.407593 -3.892790 14.322581 -0.000005 -0.001924 0.015979 0.000004 0.001944 -0.016041 -0.000004 0.000006 -0.000043 -0.000000 0.000004 0.000003 -15.245220 10.163086 26.456297 3.939042 7.948706 0.746813 -0.579460 1.575002 2.538717 0.000000 -0.000001 0.000000 -0.000003 0.000006 0.000010 -0.000001 0.000018 -0.000059 0.000003 0.000006 -0.000048 -0.000001 -0.000001 0.000003 0.000001 0.000001 0.000015 -0.000002 0.000017 -0.000073 -0.000002 -0.000002 -0.000059 -0.000001 0.000003 -0.000000 -0.018078 4.054259 0.511074 -0.018092 -4.054239 -0.511137 -0.000008 0.000010 -0.000050 0.000001 -0.000002 -0.000002 1.198114 13.268092 10.729229 -59.016031 43.469564 51.833865 -0.000162 105.912827 0.000180 2.404741 -4.148231 -38.886343 0.000000 -0.000000 -0.000000 -0.000001 -0.000011 0.000089 -0.000003 -0.000001 0.000020 -0.000001 0.000002 -0.000001 -6.948214 -5.049371 -29.743008 4.637195 -8.634130 -0.225393 -1.273767 0.137309 -2.094862 0.000000 -0.000001 0.000004 -0.000004 0.000001 0.000009 0.000010 -0.000015 0.000069 -0.000006 0.000003 0.000029 0.000001 -0.000002 -0.000001 -0.000002 0.000002 0.000005 0.000010 -0.000006 0.000078 -0.000009 -0.000002 0.000024 -0.000000 0.000002 0.000000 -0.000003 0.000003 0.000009 0.000008 -0.000003 0.000073 -0.000006 0.000000 0.000030 -0.000001 -0.000004 -0.000001 -57.727447 1.414386 4.848583 76.569235 7.727446 -0.588006 -29.596565 5.266605 -5.114199 -0.000006 0.000002 -0.000003 -0.000000 0.000002 -0.000000 -55.850412 -14.290282 -6.910751 75.532555 -8.065661 -4.685308 -32.300159 -9.892082 4.149164 -0.000000 -0.000010 -0.000001 0.000000 -0.000000 0.000000 
0.048686 167.783203 -0.470139 11.696221 3.039533 -1.287865 9.939575 1.419339 1.220823 7.652924 0.738528 0.077044 7.644647 0.826887 0.058257 -11.402409 -1.892521 7.324166 -27.449943 2.082280 -6.220300 0.000000 0.000000 0.000000 0.000000 0.000000 0.000000 0.000000 0.000000 0.000000 3.557352 -26.212547 4.772367 -62.420805 -21.669919 -66.639355 0.000004 -109.439500 0.000017 0.613429 -4.048333 14.390927 -0.000005 -0.001927 0.015982 0.000005 0.001942 -0.016044 -0.000002 0.000004 -0.000044 -0.000003 0.000000 0.000000 -15.245220 10.163084 26.456299 3.939040 7.948704 0.746812 -0.579457 1.575000 2.538716 0.000001 0.000001 -0.000000 -0.000002 0.000001 0.000009 0.000001 0.000014 -0.000062 0.000002 0.000009 -0.000050 0.000001 -0.000002 0.000000 -0.000001 0.000004 0.000016 -0.000002 0.000022 -0.000073 -0.000002 -0.000000 -0.000058 -0.000000 -0.000005 -0.000000 -0.018078 4.054255 0.511078 -0.018095 -4.054234 -0.511137 -0.000007 0.000011 -0.000048 0.000000 -0.000002 0.000001 1.203502 13.243130 10.692421 -58.845925 43.368662 51.743252 -0.000156 106.161746 0.000131 2.594639 -4.091145 -38.884421 -0.000002 -0.000001 -0.000001 0.000001 -0.000011 0.000088 -0.000005 0.000002 0.000019 0.000000 -0.000004 -0.000001 -6.948210 -5.049373 -29.743012 4.637194 -8.634123 -0.225397 -1.273762 0.137307 -2.094860 -0.000001 0.000002 -0.000001 -0.000006 0.000001 0.000009 0.000010 -0.000005 0.000070 -0.000005 -0.000000 0.000029 0.000001 -0.000000 -0.000002 -0.000002 0.000000 0.000005 0.000011 0.000002 0.000080 -0.000009 -0.000001 0.000023 0.000000 0.000004 -0.000001 -0.000004 -0.000000 0.000009 0.000007 -0.000005 0.000074 -0.000005 -0.000000 0.000030 -0.000001 0.000001 -0.000000 -57.753969 1.412500 4.845703 76.578626 7.720354 -0.588084 -29.598813 5.260349 -5.114678 -0.000006 0.000002 -0.000003 -0.000000 0.000002 -0.000000 -55.868188 -14.242425 -6.927878 75.554453 -8.073243 -4.615084 -32.318259 -9.895616 4.134765 -0.000000 -0.000010 -0.000001 -0.000000 -0.000000 -0.000000 
